<svg xmlns="http://www.w3.org/2000/svg" width="525" height="850"><path d="M143.166 24.57c-.36 1.977 2.403 1.397-6.835 1.446-1.036.213.103-6.095 6.835-1.446m106.241 324.22c-65.244 32.014-90.088 50.502-98.137 49.04 25.33-28.067 60.893-59.544 98.137-49.04m14.588 4.817c70.058-.07 86.202 149.596 11.63 180.437-50.095 13.363-38.571-35.804-16.88-34.29 126.02-67.068-27.346-181.913-87.502-48.794 1.513-58.436 76.017-83.383 92.752-97.353m-52.371 211.035c28.925 13.477 32.449 8.332-33.364 22.218-23.433-9.392 16.356-59.913-49.302-65.496-7.452-.587-16.166-64.328 9.836-105.133 6.079-8.504 21.018 62.082 22.063 68.583-4.279 2.225 1.616 31.028 11.895 9.853 38.379-127.866 125.086-39.094 86.87-19.514-89.719 26.967-63.945 60.268-47.998 89.49m33.114-260.582c49.177 14.953 151.39 70.09 76.04 217.273-7.038 9.822-16.3 15.334-18.16 6.488 54.359-39.519 51.48-211.99-86.043-199.04-.117-37.04-15.173-29.31 28.163-24.72m-51.055 29.398c-6.549 8.304 4.399 7.141-16.575 20.044-9.126-19.027.712-10.004-21.25-48.608 26.8-3.192-3.098-5.413 26.543-2.583 8.964 2.285 6.383 31.855 11.282 31.147m-36.295 33.04c-21.622 31.186-39.852 26.43-47.355 124.847-38.569 4.624-58.949 19.173-79.174 30.44-10.706-29.826 17.032-171.208 94.958-203.14 19.354 6.733 27.599 38.221 31.571 47.853m-52.197 168.8c8.035.582-30.775 8.937-60.62 32.71-8.738.594-2.463-24.102-3.162-16.439 10.838-15.868 64.88-30.318 57.407-30.423 11.323-.309 26.351-1.724 6.375 14.151m127.567-34.656c-23.534 68.273 39.147 49.521 53.857 49.8-76.71 42.235-101.358-39.798-53.857-49.8m93.795 33.62c2.156 49.155-6.658-4.491 2.754 68.093-5.91 9.7-94.585 46.97-135.847 7.971-2.804 6.099-10.266-14.488-.272-15.6 82.152-7.047 102.601-22.148 133.365-60.463m39.671-212.082c50.957 44.72 86.192 203.682-25.162 268.768-21.73-111.308 82.548-152.442-18.736-261.95 36.17-11.134 25.922-19.46 43.898-6.818m-211.36 242.785c5.805 1.95-.638 10.54-2.697 18.233-1.917 6.55-27.483-14.79-20.35-14.224 18.854 2.074 7.52-2.561 23.047-4.009m147.457 65.038c21.888 24.693 24.913 65.001 22.967 83.683-127.647 15.902-204.597-32.827-207.43-51.407 22.657-27.75 11.643-9.121 16.529-11.184-13.604 48.47 100.311 21.9 45.362-29.02 43.597 14.736 45.943 29.104 122.572 7.928m34.077-9.498c10.024 19.929 21.283 17.38 38.398 70.588.52 6.162-18.955 15.712-22.754 12.274-10.991-55.765-15.294-61.085-28.425-82.251 5.164-6.964 7.432 4.91 12.78-.61m158.504-97.237c-6.875-5.658 1.965 76.47-92.085 152.885-24.428-43.125-1.493-17.151-47.261-72.602 28.86-42.288 42.32-28.435 68.033-109.815 34.447 19.875 87.691-10.8 71.313 29.532m7.678-57.48c-38.628 11.872-44.834-4.827-61.197-.869-2.172-4.726-20.558 10.156-15.12-29.977 78.27-11.612 57.073-16.452 71.347-16.994 10.365-11.336 10.664 39.527 4.97 47.84m-85.994-190.106c38.349 18.078 71.683 78.163 76.49 98.892-15.74 16.464-81.017 37.116-73.657 16.642-20.467-46.907-23.045-58.57-46.644-81.302 26.793-17.326 13.232-14.62 43.81-34.232m-35.339 462.1c14.525-2.19-19.356 75.285-22.568 75.917-11.646-32.021-17.204-30.86-18.197-79.303 11.308 2.47-5.875 13.937 18.943 62.403 3.946 7.556 24.03-59.499 21.822-59.017m-225.621-114.43c2.506-8.615 7.121-1.785 10.33-.34.212 11.309-3.447 2.189-13.847 12.734-.007-14.114-1.63-2.102 3.517-12.394m-14.764-26.72c3.015 4.56-24.456 61.804-32.914 54.991-12.666-52.087-55.288-20.05-42.63-38.253 35.847-23.548 48.24-13.407 75.544-16.737m-22.858-11.541c-27.1-2.321-45.31 10.876-48.106 12.729-15.573 5.867-8.47.53-12.556-2.674 22.853-23.199-4.919 1.912 36.601-27.13 16.316-7.92 11.084 5.122 26.473 9.933 2.553 1.902 5.596 6.564-2.412 7.142m39.162-388.703c145.209 28.991 148.45 9.279 247.014 70.382-29.387 29.885-41.327 26.77-40.782 32.128-105.036-42.126-139.109-57.759-198.4-70.47-29.343-12.827-20.399-1.074-7.832-32.04M127.704 29.5C49.018 47.538 40.22 157.298 147.76 193.22c-19.201 32.197-10.403 16.286-17.726 21.964C-24.94 170.467 57.23 2.041 127.703 29.5m-26.948 189.14c42.913 16.1 14.704 1.662 13.057 57.85 38.808 41.828 20.254-43.65 30.397-41.237 146.665 40.63 118.65 41.826 173.897 59.732 57.448 15.436-17.571 23.219-1.905 25.363C94.993 190.091-49.072 462.663 52.13 613.184c-19.66 19.413-27.1 39.01-39.631 84.11 6.77 6.812-40.733 65.625 35.487 9.985 63.03-21.63 37.301-43.457 81.958-15.192 19.279 27.006 150.755 52.955 201.6 31.19-9.165 59.31 16.625 78.782 18.44 106.562-1.628 11.156 17.545 16.02 14.838-2.618 12.307-20.393 37.592-78.13 35.083-92.685-8.972-22.1 7.092 8.412-11.905-32.846 98.09-52.841 218.635-293.033 40.459-437.744 67.343-61.254 58.678-136.92-18.766-141.28-91.848 17.62-72.182 93.998-28.777 111.169 62.334 1.223 45.139-50.55 16.02-43.715-29.543 7.018-34.914-42.863 24.957-51.846 62.79 8.95 44.365 83.024-8.382 116.547-51.942-36.849-111.838-51.193-238.576-72.106 6.73-16.96 7.976 1.517 6.683-28.586-15.958 4.919-14.957 39.36-48.011 16.964-126.63-54.82-5.158-208.374 96.413-86.988 17.27-9.66 3.616-5.898-9.941-28.007C80.75-91.105-56.595 146.704 100.755 218.64m187.429-66.768c8.747-1.07 4.9-12.337 5.175-8.509-8.418-14.867-18.92-23.508-30.507-33.683 1.652-.62-5.852-3.3-10.103 6.831 27.348 35.48-46.893 41.287-44.793 26.19 8.508-8.65 121.97-110.121 63.205-116.653-40.487-4.945-53.954 2.606-58.213 13.081 5.638 10.397 1.195 12.218 9.54 14.152 15.892-9.893.997-13.29 21.276-8.987 28.348 18.363-23.519 74.471-49.005 89.983-17.889-6.497-19.107-51.374-5.784-67.92-2.702-16.193-16.004-5.568-15.254 1.642-35.637 68.572 39.796 141.615 114.463 83.873"/></svg>