<svg xmlns="http://www.w3.org/2000/svg" width="325" height="1050"><path d="M227.237 970.162c-5.719.472.468-5.586 6.887.244-2.228 8.06-11.545-.52-6.887-.244m-29.321-92.372c12.689 4.585 51.035 88.16 36.726 78.01-16.849-11.994-30.515 31.607-2.093 30.408-14.384 12.303 1.402 32.274 17.243 15.495-.019 1.65 3.931 5.377 5.535 2.442-42.341 26.845 15.123 50.302 5.344 4.464 25.77-.21.742-25.284 17.19-27.522 1.139-.343.979-27.61-9.19-27.379 3.243 2.777-12.12-.597-15.892 9.96-5.82-25.305-27.563-80.337-52.828-100.3-5.798 6.945-11.824 4.361-2.035 14.422M35.136 978.947c.942 5.155-5.427.255 0 0m-10.94-47.254c3.567.779 4.016 3.47 1.137 5.436-7.128-.693 2.21-2.918-1.137-5.436m18.663-6.952c-3.79 4.504-2.039-17.71-22.015-6.161-18.138 8.082-10.262 7.508-1.86 28.318-17.936 36.497 22.255 10.503 5.165 28.58-10.384 10.987 19.47 33.917 23.988-.078 3.619 4.116 20.545-7.224 15.069-19.331 9.652 5.487 18.128-36.428-8.683-27.073 16.394-23.64 6.283-14.67 18.174-24.162 2.762-4.734-.467-17.737-16.44.713 4.494-3.757-7.446 11.992-13.398 19.194m111.94-53.055c-8.546-26.788-15.69-1.497-11.114 4.7 36.744 37.694 15.495 26.256 64.08 43.95 5.405-10.981 10.381-2.245 7.493-13.242-48.21-8.627-34.03-13.185-60.46-35.408M75.855 797.96c-38.008 25.502-18.02 110.467 39.854 103.13 28.52.195 22.627-19.31 17.393-17.467-73.871 27.583-74.174-62.783-56.303-74.226 31.381-20.765-3.084-18.162-.944-11.437m129.49 28.432c-4.737 8.893-32.346 35.506-34.969 34.698-4.007 7.435-1.207 10.586 10.775 5.502 10.286-6.637 29.22-27.542 33.767-32.82 2.242-12.566 7.118-6.32-2.693-13.777-1.404-4.772-9.141 5.484-6.88 6.397m-57.158.197c-34.973 30.674-35.957 37.68-45.655 42.318-4.024 11.334 3.324 14.873 9.936 9.008 13.014-12.23 30.202-35.339 33.57-32.774-2.489-1.933 18.321-15.565 2.15-18.552m12.14-31.295c-2.623 4.478 1.285-9.483-10.82 3.515 16.307 38.84 13.6 19.519 20.692 33.905 9.432 8.622 14.053 6.517 12.73-4.03-12.165-13.06-25.429-26.662-22.602-33.39m-28.548-9.759c18.923-8.81 34.96-1.557 60.57 5.705-7.574 20.983-7.63 10.777-8.487 14.685-3.779.25-4.968 21.711 3.102 11.6 10.246-2.19 9.257-14.265 14.933-16.453 33.19 10.693 80.676 76.908 42.291 95.928-18.415 9.33-1.388 19.937 8.893 5.762 40.972-22.145-.675-87.195-46.453-115.712 15.47-33.2-33.832-78.708-61.18-37.012-5.722 19.729 7.255 24.576 9.871 8.582 20.4-32.54 54.695 14.059 37.493 26.224-5.654-13.766-49.847-20.981-70.048-7.637-8.024 7.875 5.064 21.87 9.015 8.328m116.04-435.758c34.368-3.276 14.453 43.423.971 34.585-13.396-13.617-9.436-12.672-.971-34.585m51.102-26.009c.758 3.157-5.268-.033 0 0m-17.95 6.278c.99-3.245 5.608-3.369 7.112 3.91-7.069 3.964-1.012-1.057-7.113-3.91m-10.156-4.582c-3.528 4.237 5.23-.114-4.21 8.245-3.801-20.08 7.15-11.795 4.21-8.245m-2.624-26.912c-1.994 3.753 4.57 5.593 2.449 10.256-9.412 7.633-12.334-17.773-2.449-10.256M196.536 592.18c-6.776 4.934 30.104 116.688 21.92 97.066 9.211 28.943-21.08-15.728-91.89 9.612 19.959-97.123 5.844 10.996 21.195-98.949 6.028-15.902 29.1-22.188 48.775-7.73m-2.479-41.948c-.404 13.38 1.62 1.382-2.192 9.954-30.022-5.638-5.228 1.285-33.885-1.904-3.76-.294-1.967-14.715 1.135-10.56-2.813-2.66 14.487-10.897 34.942 2.51m1.568-135.978c-.84 88.225-2.181-26.885-3.57 105.426-38.624-11.525-37.37 9.49-39.968-14.293 11.669-48.267-1.838-33.745 7.427-91.763 25.627-4.414-6.464 1.448 36.111.63m-3.025-50.316c16.188.557 14.953-3.095 10.98 19.029-45.112 8.655-43.322-7.934-45.492-3.244-.2-20.015-.28-9.952 2.414-13.484 14.33-2.07 25.001 9.201 32.098-2.3m45.131-114.285c-11.878 37.046-7.663 3.168-25.817 80.454 3.675 9.817-62.654 9.702-57.682 4.805-17.931-86.425-18.82-65.853-28.047-92.73 92.704 20.798-15.815 5.833 111.546 7.47m-69.585-11.428c.173-3.396-1.848-1.94 7.483-2.259 5.663 6.602-8.076.548-7.483 2.26m110.934-68.2c8.744 13.255-20.426 40.99-27.741 36.829-4.715-17.91-2.118-14.463-30.269-23.859-6.39-.187-5.99.545-2.478 9.442 23.502 17.625-3.367-7.079 26.736 18.707-95.018 32.334-104.02-10.845-115.854 1.95-7.455 15.55 22.726 10.145 26.36 18.758 10.936 5.307-23.823 5.026-40.164-7.18-5.498 23.695-4.539 8.236-2.336 16.473 69.577 126.952 12.999 445.695-4.947 468.376-11.873 15.79 4.93 27.742 7.795 12.299 8.15-15.092 73.304-25.71 66.053-12.335-59.798-7.897-107.678 56.67-64.581 124.402 3.067 2.717 16.154 4.462 13.16-3.477-76.081-122.92 119.984-145.768 101.33-50.197-10.783 17.515 10.221 19.966 7.566 6.315 4.12 6.03 10.63-40.351-5.128-61.773 16.913-.697 5.964-23.48 1.664-19.376-70.322-160.205-14.05-440.418 22.981-467.617-1.542-7.348 30.477 30.962 20.129 63.112-12.75-45.937-43.334 9.657-25.628 15.444-20.57 19.941-5.824 38.936 13.16 26.653-5.69 25.954 33.491 18.967 28.103-4.162 25.447 2.757 11.609-17.476 17.922-14.517-5.084-1.712 14.187-9.277-22.08-20.156 10.347-44.07-30.645-90.76-35.379-83.789-.38 2.443-16.292 15.113-33.138 11.88 34.092-13.104 56.41-13.5 73.401-59.155-9.07-8.946-3.989-18.81-16.637-3.047m-69.09-12.029c-13.33-.637-.63 3.993-9.326-6.703-7.088-6.2-.438-6.061 9.862-9.865-6.457 15.62 1.084 2.163-.536 16.568M74.106 278.3c8.878-46.927-50.07-25.98-18.08 4.458-15.395 32.148 3.903 25.332 13.714 26.296-32.739 61.546 43.04 14.448.629-4.002 5.439-24.695-12.122-17.854 3.737-26.752m56.798-72.338c1.228-14.599-4.06-6.403-5.988-9.63-33.123 23.212-45.57 60.42-42.653 72.296-16.34 31.507 12.429 30.677 5.833 8.15 2.15 16.125-.008-1.435 6.917 10.96-34.564 30.643 20.216 41.817 10.303 7.348 19.541-10.445 17.854-47.879-6.576-32.869 4.511-2.99-4.106 8.265-6.708 3.818 3.228-25.342 25.507-54.615 38.872-60.073m78.895-9.948c-11.485 1.095 12.927-10.555 12.444-54.613-.209-6.76 32.988-.645 29.452 6.435 12.835 6.344 6.538-.142 11.941-3.939 5.194-4.766-24.367-33.576-73.577-5.115-6.135 2.484-9.782-9.927-17.88-6.038-12.559-4.587-11.416 10.108-2.343 9.337 33.799 23.816 17.515 18.964 33.615 32.778 3.602 10.094-7.978 7.279-8.253 19.11-32.785-12.01-7.735-4.443-30.02-14.833-9.154-.322.357 10.539-7.528 11.177 36.782 25.665 34.648 17.087 50.867 22.167 29.933-4.501-.391-21.573 1.282-16.466m-37.577-30.307c11.396-14.267-17.955-6.24-.551-8.53-16.249-.835-21.69 19.01-25.165 14.35 5.909 3.892-6.263 4.753 1.827 11.336 8.953 1.421 1.417-1.775 6.442-.71-.3-6.08 13.162-5.424 17.447-16.446m-56.711-4.324c-13.328-14.103-12.866-1.388-13.8-1.817 7.134 26.113 51.847 39.425 49.327 42.573 16.595-2.035 4.237-18.49-1.046-16.116-25.177-10.083-38.106-22.719-34.481-24.64m6.772-45.875c-45.156 9.352-51.564 42.722-38.639 70.293 22.886 26.849 25.694 10.09 24.286 6.777-21.622-21.11-13.072-61.936-1.019-56.992 14.713-10.43 43.191-5.823 15.372-20.078m93.24-13.471c-36.508-37.546-81.457 11.776-76.023 46.118 8.553 24.358 21.154 16.146 15.245 7.487-15.12-69.027 53.08-49.96 50.422-45.727-2.113 4.256 10.119 14.294 11.866 8.315-.807-7.083 3.03-9.08-1.51-16.193m-98.727-20.659c55.086-109.653 199.996-39.432 150.73 80.765-21.69 26.756-14.097.302-27.194 41.008 13.08-30.162 3.577 9.685 37.04-35.302 54.756-136.266-108.44-216.473-170.115-90.602-10.637 29.021 1.126 22.394-1.705 28.19 16.474-2.008 3.023-6.047 11.244-24.059"/></svg>