<svg xmlns="http://www.w3.org/2000/svg" width="825" height="850"><path d="M610.011 353.847c13.624 11.713 75.807-20.901 78.028-54.655-8.927-3.218-.099.102-6.689-3.568-11.826 5.897-11.562 44.78-71.989 39.321 4.744 1.916-16.293 4.426.65 18.902m2.674-43.491c2.72 9.047 5 7.372 16.171 20.046 3.006-3.944 10.898-2.95 6.069-3.088-10.817-3.863-7.873-8.063-22.24-16.958m-217.534-88.93c7.093 36.592 35.081 14.59 34.401-1.42-1.644-13.765-22.682-25.65-34.401 1.42M131.5 468.532c14.538 13.088 9.408 5.986 10.661 11.842-7.906 6.762-.069 4.582-14.42 12.161-1.615-16.859-.13 7.387 3.758-24.003m39.878-58.28c25.348 34.953 32.973 6.043 38.714 17.716-15.094 28.792-53.55 46.516-52.43 42.625-13.158 5.512-3.298-45.889 13.716-60.342m-8.53 74.176c15.059-.495-2.382-6.23 19.559-3.922-17.614 32.493-10.428 19.011-16.918 26.716-5.307-.784-.08-8.984-2.641-22.794M297.44 729.67c16.864-28.526 67.872 4.436 65.998 7.023-73.495 97.37-208.931 108.339-276.377 46.5 73.15 34.656 189.494-18.165 210.379-53.523m48.843-58.053c-5.3-6.084 35.664.543 32.383 4.353 17.96 1.096 18.13 5.276 4.906 24.93 1.635-2.38-42.382-14.519-44.337-14.089-6.883-5.698-1.642-19.1 7.048-15.194m56.014-273.967c36.248-7.614 44.834-3.712 45.573 7.198-8.163 81.763-25.407 233.18-45.454 245.959-23.57-10.351-49.352-7.414-48.405-18.306 36.933-118.598 38.268-196.025 48.286-234.851m3.392-51.046c19.197 3.31 15.404-8.697 43.96.958 5.124 8.933.52 2.234 1.27 13.022-42.526-2.597 3.562 5.904-47.521 1.192-.824-10.445-5.646-6.633 2.291-15.172m100.928-112.588c39.896-63.69 93.285-10.007 39.636 52.788-.103-8.47-19.042 40.884-8.712 44.835-9.713 20.474-.167-7.043-12.773 22.74-31.142.52-42.018-104.822-26.863-111.24 15.889-7.712-1.59 14.244-3.13 31.094 7.987 10.688 15.788 15.081 32.103-7.182 3.308-8.22 21.62-15.415 21.192-21.442-6.23-33.333-33.625-19.833-35.918-12.08-6.774 4.999.012 5.49-5.535.487m46.398 124.487c6.176 5.87 3.419 3.445 4.22 8.162-5.843 4.975-.687.778-7.626 11.104-4.655 2.993-2.976-13.386-5.542-.782 3.03-14.73-.9-13.413 8.948-18.484m124.45 9.498c11.26 8.928 14.618 26.461 12.235 30.724-27.392 27.346-124.64.23-117.796-6.765 6.596-6.637-1.743-11.258 15.595-18.956 45.314 10.034 38.117 10.444 89.967-5.003m36.02-29.032c13.08 9.037 17.017 20.148 20.583 29.774-3.139.472-2.058 13.292-14.275 11.893-7.209-30.965-3.52-4.856-11.908-30.13-3.08-5.094-3.764-6.282 5.6-11.537m28.888-145.353c42.817-20.288 44.01-39.257 49.36-27.025 5.11-11.775 16.17 146.729-36.325 179.51-12.223-16.794 2.028-7.852-23.858-32.52 16.861-35.86 25.123-33.955 10.823-119.965m-54.919 76.147c-4.6 15.251-42.712 7.554-25.878-15.22 3.6 3.18 30.51-5.901 11.698-16.026-63.205 12.475-20.301 8.667-49.315 7.896-32.424 26.949-15.548 11.216-32.725 23.682-33.385 22.496 1.595 56.972 15.802 15.864 6.08-.163-9.637-11.82 44.883-29.569 7.588 5.011-27.245 8.329-7.885 18.196 14.993 31.299 72.607 17.508 85.942-20.775 27.155 10.02-44.373 164.223-164.604 96.186-29.441-21.028-23.34-38.69 4.86-74.85 9.054-27.517 15.666-41.696 55.502-35.326-5.362 2.653 11.584 8.724 12.884-8.66 12.637 8.066 10.8-6.788 51.695-3.917 2.902 35.204 2.713 8.606-2.859 42.519m19.147-24.66c2.745-.824-7.29 17.447.109 1.71 10.555-.287-3.226 13.074-3.287 13.165 1.201 1.322-3.36-21.187 3.178-14.874M698.542 224c22.701.303-11.839-1.499 31.804-.978-6.312 4.442-5.822 4.619-28.75 10.365-3.159-9.24-7.365-5.196-3.054-9.387m-1.822-19.194c3.5-6.02 5.58-5.759 2.547-3.285 4.23-5.816 4.157 4.71-2.547 3.285m-19.15-17.892c9.3 13.867 1.382-4.108 10.723 21.863-1.876 4.913 2.37 2.94-42.958 8.84 6.44-12.306-3.657-2.56 17.45-19.142 21.414-3.382 9.06-7.243 14.785-11.561m-31.336-15.415c29.826 9.11 22.822 5.485 21.531 8.34-31.231 5.145-45.674 39.414-43.327 47.951-15.446 10.382 2.013-16.495-35.32 1.113-6.545 1.078 3.819.683-4.474-2.509 3.894-12.429 27.912-36.07 61.59-54.895m-69.46 33.672c5.912-3.793 15.936-15.92 20.21-15.393-9.592 12.148-12.673 19.044-18.475 22.684-6.105-3.617.374-3.826-1.735-7.291m-18.865-16.89c-9.111 1.954 37.968-28.667 44.267-16.8-19.706 12.935 5.873-8.652-36.403 28.869-13.613-5.424-14.557-8.327-7.864-12.068m213.56-50.167c6.865-2.83-24.829 20.089-42.547 23.35-6.341-6.795-7.275-3.366-5.06-9.193 15.7-5.612 29.39-24.472 43.26-31.744 2.508 11.53 13.74 6.08 4.346 17.587m-267.443 20.74c-56.085 88.52-25.275 31.574-51.727 156.03-23.073-6.437 4.801-.853-56.873.86 6.135-32.523-56.027-113.655-110.644-155.117 95.024-.919 13.77 8.317 90.66-3.433 40.278 57.216 54.583-6.731 89.231-47.193 23.87 39.848 24.577 34.191 39.353 48.853m9.457-92.73c11.718.692 1.378 25.772 34.425 56.199-17.386 15.141-21.538 17.376-27.09 13.026-27.488-27.783-20.483-22.79-27.566-51.91 12.313-17.963 10.038-7.264 20.231-17.314m185.371 64.405c-39.76-30.212-123.561-22.126-116.886-18.262-17.792-4.352-45.58-61.97-22.822-70.933 76-29.37 125.441-1.075 183.049 50.885 7.925 9.661-34.305 37.227-43.34 38.31M229.627 639.844c-19.87 13.473-52.116 38.792-29.455 98.704 5.301 13.057 16.871 2.408 11.626 4.55 12.89-6.582 21.141-11.175 35.956-27.375 2.715-7.761-7.643-11.165-6.632-9.462-6.798-2.791-25.3 16.737-27.02-14.034-1.88-13.544 23.066-40.374 22.48-37.091 8.692-6.785 4.22-21.378-6.955-15.292m-113.293-16.968c14.818 28.862 13.893 16.375 32.936 44.984-5.31 12.388-35.707 24.527-36.33 23.015-11.194 7.382-2.512 15.231 3.375 9.426 21.158-8.339 8.456 9.796 8.65 6.491-5.288 3.825-18.088 7.862-32.173-23.72-2.508-1.019-9.292-2.485-8.7 7.092 6.954 19.326 23.469 37.581 51.487 47.332 7.012 5.633 8.328-3.971 11.01-11.618-6.298-4.305 1.93-14.905-6.731-31.639 2.466-8.232 17.564-11.912 18.307-16.932 9.5-9.249 30.423 11.214 26.591 5.789 6.259 5.977 13.533-16.525-1.127-21.455-2.683 3.086-18.47 4.954-20.75-3.156-26.805-25.77-19.518-10.299-29.334-36.78-12.946-10.828-13.45-7.554-17.211 1.171m8.272 46.92c-35.062-33.196-74.983-4.04-87.796 26.7-5.264 5.706 18.071 17.016 42.424 11.8 9.227-7.935-4.138-13.627-15.453-16.223 2.673-31.182 45.987-23.605 44.973-15.786 12.65-1.87 12.9-.576 15.852-6.49M189.408 567.9c-9.43-.63-10.044 11.636-2.976 11.83 53.525.681 78.166 39.816 72.036 88.687-9.643 6.108 11.167 24.44 13.246-7.97-1.67-81.23-64.237-93.279-82.306-92.547m-51.972 12.311c-22.88 14.625-32.285 16.383-57.892 61.622 2.708 6.91-5.174-.436 9.771 9.022 4.22-23.966 45.82-62.937 52.377-55.828 6.323-.601 9.724-18.089-4.256-14.816m21.551-19.404c-12.585-17.188-22.258-6.511-18.297-.904 46.208 40.6 36.423 64.91 26.744 82.563-1.087 17.358 13.549 13.4 16.457 2.51 11.428-42.799-8.954-61.424-24.904-84.17M385.55 145.517c-96.421-3.63-84.98 8.243-108.513 2.404-13.518 22.878 37.406 45.058 46.197 64.768 64.196 79.142 95.98 88.193 33.139 377.279-27.555 90.533-21.414 48.585-68.472 37.802-13.269 2.848-15.405 8.36-7.163 13.163 32.463 11.96-23.02 73.755-51.527 43.066-1.904-1.45-17.742 7.505-3.034 16.418 31.414 8.265 63.679-2.716 81.659-15.317 10.609-.048 10.572-2.624 2.793 15.454-51.61 62.085-160.633 114.663-248.131 59.09-51.417-33.435-76.273-190.615 36.356-197.125 3.895 2.224-5.531 42.997 13.564 29.491-2.639-36.164 24.534-86.29 38.185-97.803 8.012 79.989 53.438 44.56 55.426 39.258 14.579-31.935 40.441-43.449-6.259-67.132 14.776-35.998 21.241 3.875 42.964-114.151 3.007-20.768-10.838-11.501-22.375.613-41.301 30.831-82.597 65.473-83.05 103.226-47.751-67.96-92.911 79.705-21.527 58.76 9.558 1.896-2.903 8.016-12.858 34.613C-8.573 546.11-15.297 701.04 54.177 774.89c89.414 75.29 198.88 84.064 295.287-6.577 118.184-110.62 99.253-392.486 130.304-550.733 62.468-112.642 122.958-103.93 202.947-80.72 19.981 21.718 46.561 54.772 35.418 54.189-26.158-22.321-17.73-.323-28.043-10.596-79.706-95.288-235.722 54.143-207.407 100.847-24.942 79.935 173.162 265.483 309.333 38.797 63.957-141.432-17.71-225.584-72.213-262.253-76.564-79.584-222.176-41.578-288.51 82.72-22.94 42.428-45.51 25.009-45.744 4.952"/></svg>