<svg xmlns="http://www.w3.org/2000/svg" width="500" height="850"><path d="M115.443 101.892c-.402.884-6.716-5.821-10.807 1.178 2.732 72.523 28.574 136.502 64.334 186.762-.7.859 10.403 13.752 11.114-16.403 9.563-43.57 20.713-102.787-64.641-171.537M265.125 313.79c-7.513-13.412-8.032 4.473-11.077 3.054.102 27.718 3.604 11.843 2.987 22.864-.754 14.795 11.067 16.38 11.627 5.647-1.33-16.272-4.443-8.666-3.537-31.565M73.64 445.222c3.42-13.797 15.362-11.797 10.545-5.854-11.395.148.929 6.452-10.545 5.854m-46.033 16.156c8.029 12.892 15.5 2.199 11.333 15.058-6.813.99-1.824 6.527-13.694 12.533-3.88-9.034.927 7.472 2.361-27.591m83.164 117.684c21.756 24.802 16.57 29.352 20.177 42.683-6.482 5.025-7.693 13.447-10.427 12.136 1.175.186-21.002 3.978-20.796-2.436 2.48-37.74-1.612-11.999 11.046-52.383m24.678-21.23c6.615-20.638 67.448-3.291 69.767 8.566-27.046 40.876-26.035 22.934-48.983 53.088-22.545 29.427-5.692-32.633-37.868-46.23 6.7-10.567 5.53-4.688 10.071-4.188 20.004 21.344 18.732 21.358 30.555 27.474-.698 7.265 12.057 5.807 9.975-3.987-10.27-7.532-27.21-28.744-33.517-34.722m128.065 76.624c43.112-16.875 29.943-23.426 40.53-12.442 17.197 123.033-150.107 187.743-203.39 47.035-2.694-5.557 20.29-.886 33.984 1.738-2.913 84.673 106.933 91.75 128.876-36.33m-9.568-87.334c17.541 22.449 53.139 61.555 41.584 63.644-24.262 2.335-23.906 12.082-30.613 6.988.969-43.657-2.272-23.305-10.971-70.632m-53.855 48.252c-1.117.185 3.774 1.144-.954 4.885-4.637-1.479-.989-7.119.954-4.885m14.54-17.693c16.152.503 18.844 32.89 17.322 41.145-7.099 5.063 9.056 1.912-20.453.114-6.78-4.271 3.375-24.047 3.13-41.259m-5.85 49.232c6.577 15.773 27.994-.277 22.127 22.854-18.132 61.908-55.776 71.723-70.665 52.713 10.367-18.816 35.368-21.888 48.537-75.567m35.192 11.844c-.024-2.068 7.639-3.775 6.054 2.814 7.96.124-33.898 82.282-43.5 70.531 4.868-2.197 24.365-11.924 37.446-73.345m-116.49-93.332c-6.504-7.22-25.01-30.466 2.903-27.6 12.51-23.617 101.195-13.205 125.065 77.98-.969-2.546 1.573 43.507-11.526 19.928-.732-66.446-71.309-97.753-116.442-70.308m-51.676-34.815c.748-3.417 15.921 6.6 11.205 12.074-9.836-13.438-3.375 2.578-11.205-12.074M90.82 620.911c.171 15.52-32.416-5.387-29.882-12.073 20.987-56.528 5.377-32.096 34.987-73.505 6.056-8.331 14.934 9.256 20.652 18.17-20.323 25.445-25.997 39.609-25.757 67.408m120.426 152.955c8.643 42.437-3.037 2.809 13.424 47.27-107.878 9.531-175.756-85.915-169.63-182.284 8.215-16.388.955-2.903 30.978 15.442 15.591 68.331 46.02 100.864 125.228 119.572m49.986-17.355c6.716 15.305 13.333 33.49 22.157 55.792-5.761 3.572-.177 2.921-16.92 2.563-24.188-33.636-16.892-16.773-23.158-49.85 16.817-19.587 16.466-4.232 17.921-8.505m58.562-91.66c11.57 2.479 52.465-1.25 73.269-7.755.692 49.597-24.732 110.112-73.803 140.792-11.392 2.399-16.083-31.044-35.087-58.83 36.449-54.153 21.6-59.847 35.621-74.206m-2.002-40.045c26.421-6.254 55.585-13.945 64.767-24.497 7.219 5.304 14.894 20.665-5.163 26.914 1.083-4.592-17.412 13.89-57.912 5.752-1.137-.174-4.013-7.527-1.692-8.169m-79.927-210.991c-1.702-16.567 134.49 18.097 154.14 74.406-8.613.217-30.557 66.077-46.567 25.265 12.875 2.136-28.55-24.966-54.662-81.538-19.214-12.86-12.28 12.864-13.004 13.524-8.725-4.039-30.308-21.682-39.907-31.657m-31.468-9.807c91.431 69.644 103.656 92.312 160.248 151.98 23.383 24.65-57.155 42.33-63.979 34.805-64.064-85.088-70.329-93.617-154.778-158.835-25.178-24.703 43.017-15.902 58.51-27.95m-40.47-37.567c9.334 12.58 27.873 20.501 25.985 26.639-58.63 13.672-29.688 7.562-66.957 20.194 1.482-3.343-5.695 2.411-4.998-8.213 35.617-21.118 22.33-14.498 45.97-38.62m-16.065-74.146c11.083 19.253 7.04.933 17.731 28.338 16.01 16.07 8.206 30.909 65.701 72.31-8.149-.703-17.797 3.08-28.282-4.285-9.281-11.613-37.977-31.74-57.168-70.102-1.454-20.455-3.63-32.181 2.018-26.26m-60.685 63.65c2.735 2.575 43.515-20.018 46.651-24.217 2.394-9.732 15.969 8.471 9.473 10.08.912 5.754-34.21 36.092-45.56 31.884-6.469 3.498-12.837-10.37-10.564-17.747m3.897-157.517c12.154 26.733 31.686 74.237 34.602 65.284 6.954 11.055 11.572 28.729-1.69 37.798-30.106 17.842-45.617 28.743-51.688 15.685-10.356-58.824 2.687-110.43 18.776-118.767m112.839 114.855c65.87-20.636 38.8-5.764 104.828-.413-29.887 71.288-71.137 55.377-104.828.413m-2.763-99.299c50.55-6.037 49.594-10.512 81.029 12.152-7.882 17.83-15.313 25.198-15.924 45.956-6.892 8.193 13.268 10.671 8.217 5.063 7.796-27.323-3.246-5.694 14.325-41.693 13.04 12.492 16.419 19.076 19.682 60.146-97.153-10.963-61.847.683-106.933 3.781-3.91-72.357 9.647-13.196-.396-85.405m148.67-52.443c5.428 3.994-1.256 2.967 1.297 14.427-5.274 9.46-4.992-2.928-10.545-4.02-8.492-4.528 11.088-14.067 9.249-10.407m17.53-10.598c23.387 9.386-5.747-5.37 29.432 9.021-19.647 10.375-22.165 12.38-35.015 20.19-.277-28.817-.641-22.335 5.583-29.211m-13.041-35.82c5.79 18.1 4.844 10.928 4.607 21.57-10.457 5.857-5.025 1.788-30.649 1.808 9.23-15.412 5.05 2.273 26.042-23.377m44.095-9.681c13.953-5.72 3.377 4.581 19.385 20.633-10.58 13.22-13.209 11.205-43.895 12.726 14.383-22.9 20.165-37.306 24.51-33.36m-73.922 77.375c40.54 4.782 45.205 99.024 44.483 141.47-3.063 10.377-12.461-10.456-50.498-24.298 5.85-5.983-5.85-63.712-24.199-76.089 8.47-16.364 22.012-37.26 30.214-41.083m-63.037-32.248c2.407-20.303 68.886 9.006 53.823 24.405-17.74 18.031-8.882 10.694-28.462 38.484-19.346-4.827 7.521-.546-25.178-10.31-.243-33.917 5.968-27.203-.183-52.579M218.6 140.32c.793-7.67 13.493-.054 19.78-1.35 4.327-.95 4.864 54.191 4.544 50.594-8.078 7.271 4.874 8.272-14.103 7.53 3.87-16.47 1.222-20.768-10.22-56.774m-34.44 8.31c-2.165 2.008.554-1.576-.263 2.18.633-.84-2.874-.762.263-2.18m16.09 31.213c3.602 2.093 4.17 13.261-.158 7.712-.784-7.324-4.63.185.158-7.712M85.498 41.638c72.894 103.498 124.372 99.407 106.245 267.796 35.021 64.164 82.856 92.277 131.674 10.643 15.347 5.147-6.655-15.17 40.87 22.287-46.448 79.562-151.032 64.33-200.22-53.649-61.229-31.374-103.688-229.41-78.57-247.077m-6.654-16.286c-15.256 46.897-7.331 100.487 9.508 153.05-42.978 66.368-40.902 150.486 23.006 243.584-17.87 8.557-8.68 5.829-23.134 10.358 6.23-7.46-11.29-15.11-28.026-13.941-6.214-5.012-23.8-8.768-9.926 18.353 12.432 14.52 17.872 40.862 27.245 49.927 10.711 2.835 9.418-19.028 2.484-30.185 30.66-24.91-3.076 3.33 43.684-26.985 55.08 39.32 89.9 66.558 113.574 97.604 5.806 1.72 17.712 25.518-8.04-2.744-28.961-41.706-103.119-29.21-96.74-25.072-25.265 18.085-30.222 5.144-28.246 3.636 18.452-13.964 14.019-49.135 5.789-52.031-8.467-12.926-10.582-3.201-10.725 7.92 13.283 21.821 6.154 25.279-5.347 32.733.542 4.26-4.857-2.01-17.991 11.202-9.121.526-13.073-15.874-7.9-9.373-13.884-14.16-16.177-2.691-11.04 7.153 13.562 16.658-2.38 6.602 14.044 22.2-9.45 23.721 15.089-.411 3.175 27.113-13.515 18.003-5.274 16.878-21.94 46.17-12.512-3.1-20.318-61.392-17.035-79.135 13.33 3.607 12.322 9.3 18.054 3.974 21.246 1.07 2.145-7.406 3.196-9.226-6.674 3.153-24.185-9.09-21.43-10.94 4.416-3.955 10.34-17.514 25.51-36.23-5.594-12.593-14.383-1.17-18.558 2.743 5.56-8.741-21.013-48.148-24.54-38.978C.71 473.459 13.306 496.4 32.326 515.49 16.65 503.778 18.772 568.8 48.949 618.494c-19.42 87.342 43.31 270.393 261.699 201.457 40.343-18.724 157.864-140.292 56.835-282.44 2.94-5.99 26.981-30.427 27.884-41.548 2.604-8.84 29.465 28.116-10.737 29.67-20.7.563 7.403 26.451 10.228 19.635-3.023-4.123 41.554 2.892 39.71-1.454 1.258 3.165 7.636-13.028 2.83-11.293-17.236-67.974-77.873-98.86-139.096-126.609 33.767-4.312 50.563-33.222 76.889-52.147 28.519 53.446 28.975 8.326 30.617 103.527-3.232-4.886 4.776 28.562 13.367-9.931 3.961 4.153 4.665-65.566-38.953-105.823 10.475-17.445-.934-103.063-16.51-140.143 18.292 6.51 68.287-19.646 42.238-52.477 36.254-15.227 52.312-35.081 82.398-84.81 6.249-5.836 2.508-19.84-13.468-4.064-42.983 8.648-90.062 31.57-99.826 52.905-9.73 14.112-3.21-11.028-16.055-27.379-21.31-2.779-41.537 14.27-45.814 35.666 4.155 17.268 7.618 28.026 26.622 29.838-7.807 12.198-7.671 10.218-21.642-.562 1.406-7.598-107.835-45.468-147.452-18.822C141.259 87.593 89.94 45.02 95.184 30.422c-11.773-13.49-13.163-27.979-16.341-5.07"/></svg>