<svg xmlns="http://www.w3.org/2000/svg" width="725" height="825"><path d="M147.27 63.026c22.718 125.625 57.29 123.248 70.772 156.363 6.356-1.299 45.496 39.72 30.455-.263 1.598-75.171-36.88-136.231-84.023-160.967-6.883-9.687-13.657-7.404-17.204 4.867M60.598 468.068c28.188 36.82 50.572 45.982 49.428 56.826 6.44 3.678 11.262 25.522 13.292-8.03-34.913-36.809-45.703-37.866-48.089-51.428-17.031-9.638-13.109 3.42-14.631 2.632m-51.44-45.602c-6.134 76.38 32.227 88.955 55.067 97.51 31.168 1.585 22.061-11.846 20.06-14.358-20.468 3.863-51.285-2.651-34.78-18.267 4.5-26.774 12.708-20.806 11.657-32.055 10.251-8.11-2.034-10.679-.01-6.598-16.592 6.58-13.03 7.37-22.758 33.874-8.325 4.335-5.183-22.44-7.937-24.701-5.887-21.384 25.135 7.235 15.418-17.662-18.36-10.83-22.46-33.261-36.717-17.743m112.285 16.696c7.325 3.577 6.899 30.516-10.636 47.713-3.064 23.945 13.199 12.156 8.81 13.96 14.32-27.322 24.6-57.161 8.28-71.42 1.612-4.588-12.423-10.163-6.454 9.747m420.169 9.051c-39.061 47.175-31.014 112.763 7.192 133.193 63.204 25.714 33.345 18.789 101.75 19.207-33.008 35.625-123.458 15.318-119.435-2.568-48.217 5.748-58.789-115.992 10.493-149.832m-96.044-28.583c17.146 19.255-3.086-3.149 16.874 2.045 6.734 8.904 1.273-5.692 2.73 17.509-2.17 1.82 8.932 8.844 10.09-2.364 6.564-2.031-4.706-14.743 7.175-17.238 33.867 2.346-4.421-4.413 78.846 1.935-22.528 21.152-49.097 15.563-72.802 68.898-10.27-6.039-8.043-33.122-42.913-70.785m-5.71 69.204c.948 4.818 7.832-4.637 1.607 7.115-3.86 3.5-9.508-1.523-1.607-7.115m-46.878-58.737c47.472-10.083 1.883 3.537 45.377-6.785 28.36 64.992 25.994 54.875 15.414 70.04-26.116-47.656 4.746 12.547-60.791-63.255M194.46 660.08c-6.52 3.454-18.142-33.735-15.056-30.897-8.683-49.79-15.22-41.662-6.348-48.927 33.91 38.346 44.754 65.622 21.404 79.824m-17.711-92.537c1.393-17.294 8.168-12.768 11.03-31.479 57.731 41.295 150.75 40.224 182.988 22.747 48.858 146.812-106.835 180.733-151.573 129.175 59.803 10.351 1.017-70.98-42.445-120.443m19.815-41.545c18.262-22.81 37.856-43.027 70.575-60.77 36.532-.276 82.643 53.409 98.8 80.924-54.12 30.762-164.767-2.044-169.375-20.154m281.33-118.932c-2.854-5.283 1.314-4.722-.024-7.832 84.193-12.412 120.54 7.576 216.627-10.463-19.426 18.876-80.646 22.57-216.603 18.295m-35.593 4.913c-9.129-2.54-9.57-2.045-11.423-9.975 15.391-6.363-6.653-4.024 32.492-6.268 1.16 7.755 5.244 3.363.73 13.207-28.61.988-8.801 3.48-21.799 3.036M186.066 522.495c-14.56-2.23-17.653-11.434-31.25-16.196 121.037-105.59 166.09-81.964 246.344-107.27 13.678 4.032 18.987 9.322 21.354 15.403-112.064 10.776-202.85 40.622-236.448 108.063m-17.971 127.452c32.073 30.622-17.012 11.154-38.219 13.256-18.263-32.366-1.552-141.593 23.848-143.297 4.57 7.699 15.11 2.94 23.768 12.373-32.776 48.324-11.424 110.519-9.397 117.668m121.872 74.857c6.697 72.574 10.163 38.102 14.505 75.364-70.853 7.43-143.037-30.325-173.244-120.558 64.087 8.634 11.563 5.408 64.038 6.286 40.647 39.259 67.66 35.712 94.7 38.908m37.843-4.427c8.82 22.65 23.058 54.146 35.677 60.573 5.09 4.408-13.575 14.24-21.458 7.37-30.209-49.066-8.888-27.15-21.016-46.831-.691-30.318 5.274-17.057 6.797-21.112m60.84-85.781c-.795-.362 73.515-12.45 69.86 12.178-8.02 54.906-12.385 80.926-57.772 118.692-22.399-.064-42.931-48.399-43.38-64.344 40.424-62.294 26.181-38.416 31.293-66.526m21.159-44.84c11.322 2.2 1.392-6.863 26.692-3.227 23.077-3.19 22.199 6.603 18.791 18.422-22.444-1.017-40.798-7.415-60.43 1.454-4.51-3.528-9.707-9.54 14.947-16.648m-26.382-34.773c12.474-4.34 35.86-21.916 49.925-34.387 10.148 12.175 4.494 7.926 16.107 35.643-5.967 10.314-19.482-1.568-60.292 10.37-6.201-13.293 2.855-.248-5.74-11.626m-87.3-98.637c43.784-17.423-15.166-1.04 67.161-18.92 27.666 39.046 19.937-5.216 67.937 70.936-27.284 21.141-46.977 36.467-50.027 32.606-74.082-100.16-9.784-11.278-85.07-84.622m-116.29-99.435c9.995-11.101 36.344-43.378 61.19-19.753 61.843 54.18 31.823 16.727 83.374 64.266-38.959 5.092-64.762 25.172-78.382 21.264-14.598-16.949-30.987-22.759-66.183-65.777m-25.268-33.173c11.274-18.259 25.015-24.106 40.735-33.088 1.912 2.279 17.769-6.2 14.623 11.204-38.927 27.36.075-5.948-46.751 34.899-11.153-6.646-4.942-13.326-8.607-13.015m-1.01-145.207c8.101-3.258 7.075 20.37 48.337 59.78 2.132 2.685 1.83 24.198-5.556 22.88-5.65-.087-46.432 18.38-52.384 31.45-25.898-38.638 5.227-114.933 9.603-114.11m58.578 83.323c2.019-11.857-.452-15.476 24.562 8.695 13.578 28.003 14.551 59.265 60.58 91.27-35.295-24.027-69.99-32.995-85.142-99.965m67.015 19.359c31.054-20.947 55.068-21.898 93.698-2.855-16.186 30.052-24.066 26.723-32.852 35.334-8.654 2.501-.336-22.155-3.742-18.306.022-8.78-11.98-2.747-8.157 2.145-4.516 12.413.022 6.246-3.64 19.446-32.37.25-53.382-30.295-45.307-35.764m79.737-88.987c25.351 9.433 32.467 69.351 16.226 76.975-17.41-2.607 5.935-2.095-34.644-16.578 14.713-28.283-6.708-2.309 18.418-60.397m-79.113-16.423c-1.5-13.74 75.508-2.894 70.441 10.426-11.438 29.963-12.74 29.035-19.464 66.829-30.271.52 1.013-3.659-57.692 11.276 6.386-26.12 9.033-68.932 6.715-88.531m167.03-40.154c-6.785 3.11 28.125 3.383 20.098 12.19-30.728 15.307-19.547 14.854-30.428 24.062.386-41.006-2.043-25.704 10.33-36.252m24.367-75.42c8.842 16.37-5.687 23.044 13.052 49.178-11.153 5.897-34.209 14.404-45.297 8.44 21.312-60.985 23.193-42.164 32.245-57.618m-66.884 45.355c-.782 3.593 16.475-8.293 16.357-10.01 10.345 6.382-1.49 11.935 5.372 11.447 1.94 12.184-36.196 3.616-21.729-1.437m-15.54 54.489c60.776 56.333 34.792 171.421-47.387 192.3-3.239-2.038-5.646-3.61-3.972-23.323 66.472-26.978 70.068-106.27 31.028-147.006 6.594-12.49-2.479-9.422 20.332-21.971m-55.164-35.871c-7.716-17.5 45.128 15.365 42.973 27.666-19.12 14.898-4.193 9.59-20.073 22.696-19.74-10.556 8.44-.832-24.266-11.232 6.463-10.64 3.77-36.777 1.366-39.13m-40.333-13.306c1.814.935 7.5-4.01 9.105 1.587 7.135 24.722 4.528-2.056 8.411 36.518-4.145 11.936-13.572 2.153-13.299 5.762-.31-43.343 2.68 2.1-4.217-43.867m-38.268 8.356c-7.548-5.055-.042-7.23 5.142-8.632 9.756 21.578 10.985 28.13 5.996 31.573-15.157-28.253-9.937-15.313-11.138-22.94m-120.64-89.94c91.003 41.896 152.843 124.165 132.264 215.695-12.134 53.164 15.25 77.416 45.746 80.833 10.825 9.704 19.196-5.34 14.275 28.819-74.165-16.686-65.463-80.347-90.948-101.97-30.956-15.123-124.184-129.15-101.338-223.378m-10.192-.43c-8.29 86.175 14.45 102.322 22.76 133.429-55.018 98.183-1.2 183.89 39.575 216.093-2.846 14.978-5.523-.83-8.653-.714-52.22 3.026-94.958 37.538-99.166 54.105-23.662-12.738-15.6-42.655 12.013-26.942 9.72-.591 3.689-16.106-7.202-18.258-53.209.955-5.774 1.373-47.95 5.35-9.77 8.254 2.97 7.706-2.824 10.59 34.817 46.733 32.326 31.74 54.058 53.869 5.15 6.685 15.188 24.436 14.313 2.488-7.547-10.515-4.336-11.33-22.18-24.495 14.595 1.046 6.864-1.91 10.479-1.314 31.592-41.107 84.154-38.184 95.291-44.79 11.457-4.34 31.61 22.328 54.004 42.098-48.689 34.093-76.273 51.324-82.07 62.063-12.414 20.943-12.935-3.23-21.34 2.12 5.15-5.847-8.24 4.934-6.348 7.809 15.315 11.396 11.114 6.125 9.648 13.056-21.393 27.77-34.018 91.516-29.158 138.588-40.089-15.195-59.46-76.422-63.043-124.623-13.377-2.755-3.641 24.005-8.716 16.668 9.878 67.34 32.184 100.958 73.961 124.698 85.88 262.585 468.73 139.345 334.603-158.7 4.38-.868 2.128-3.21 7.706-7.42 13.627 13.024-1.59-3.2 18.107 13.811-1.953 4.15-4.279-3.383-13.157-1.098 4.444 36.512 20.025 2.799 22.798 37.148 5.094 70.454 135.156 117.8 204.404 30.548 3.59-11.464-2.224-19.818-20.886.531-164.388 17.217-171.795-93.901-74.373-164.909 9.627-5.354 85.936 9.696 124.636-35.143 5.525-4.129 2.843 1.06 3.743-20.443-52.064 27.947-102.401 16.477-240.248 19.995-19.548-50.793-5.022-36.054-43.941-87.94-6.329-1.983-8.487 7.75-11.337 11.698 9.285 12.903 34.126 25.61 37.06 77.403-78.77 3.299-24.661-.696-57.25-.245-8.044-6.555-5.597-2.052-35.01-21.038 2.22 6.393-19.021-6.964-4.34 11.643 15.448 7.994 28.266 9.831 22.795 13.855-30.977 6.672-3.781-2.496-26.111 3.568-4.688-1.93-3.195-12.953-12.919-10.884-.525-.234 2.954 5.121 2.05 10.455-4.937 3.572 2.744.312-9.195 4.717-8.749-6.58-38.646-24.146-31.906-27.519 16.84 2.177 3.707-5.275 23.167-4.878 3.412 19.226 7.529 21.244 17.272 16.519-6.119 2.823 3.234-23.708-13.06-16.117 94.823-20.554 130.052-145.076 60.428-215.048 2.625-3.42 25.06-21.462 29.628-8.41-13.023 97.798 100.635 24.406 44.764-14.111 50.923-26.777 52.833-51.723 83.93-95.206 10.63-30.517-25.588-5.39-12.066-9.987-61.713 12.547-98.47 35.923-106.425 74.605 12.07 2.138-9.683-1.378-2.722-12.412-23.414-49.913-108.609 16.987-41.033 31.046 7.913 8.015 12.976 3.294 18.75 10.072-18.875 7.697-5.518 8.562-23.381 12.114-44.62-42.786-102.41-52.477-143.087-36.337-34.203-49.121-73.014-61.32-116.183-95.176-12.48 3.254-11.415 11.551-4.663 21.404"/></svg>